<svg xmlns="http://www.w3.org/2000/svg" viewBox="0 0 64 64" role="img" aria-labelledby="title">
  <title id="title">Brain icon</title>
  <rect width="64" height="64" rx="8" fill="#202124"/>
  <path d="M23 47c-6 0-11-5-11-11 0-4 2-7 5-9-1-6 4-11 10-11 2 0 4 1 5 2 2-2 4-3 7-3 6 0 11 5 11 11 3 2 5 6 5 10 0 6-5 11-11 11H23z" fill="#eef6fb"/>
  <path d="M25 21c-3 0-5 2-5 5 0 1 0 2 1 3-3 1-5 4-5 7 0 4 3 7 7 7h6V22c-1-1-2-1-4-1zm17-1c-3 0-6 2-7 5v18h9c4 0 7-3 7-7 0-3-2-6-5-7 0-1 1-2 1-3 0-3-2-6-5-6z" fill="none" stroke="#b52222" stroke-width="3" stroke-linecap="round" stroke-linejoin="round"/>
  <path d="M28 29h-6m6 7h-8m16-7h8m-8 7h9m-13-11v18" fill="none" stroke="#202124" stroke-width="2.4" stroke-linecap="round"/>
</svg>
